<?xml version="1.0" encoding="UTF-8"?><svg id="a" xmlns="http://www.w3.org/2000/svg" viewBox="0 0 3511.94 1692"><defs><style>.b{fill:#fff;}</style></defs><g><path class="b" d="M900.9,493.03c44.11-39.23,88.28-78.4,132.4-117.62,13.54-12.03,27.01-24.14,40.51-36.2,4.46-3.98,4.88-3.89,6.73,2.07,1.67,5.39,3.17,10.83,4.76,16.25,11.46,39.05,22.88,78.11,34.41,117.14,3.97,13.43,7.99,26.84,12,40.25h22.86c-3.9-13.37-7.81-26.74-11.74-40.1-7.64-25.96-15.47-51.87-23.15-77.81-9.56-32.31-19.12-64.62-28.49-96.99-1.12-3.85-2.07-3.62-4.65-1.29-14.02,12.65-28.12,25.22-42.16,37.86-15.87,14.29-32.11,28.2-48.08,42.4-25.71,22.87-51.42,45.75-77.12,68.62-25.21,22.44-50.42,44.87-75.63,67.31h32.77c8.19-7.3,16.38-14.6,24.58-21.89Z"/><path class="b" d="M1247.59,830.31c-12.97-43.78-25.74-87.63-38.67-131.42-10.39-35.19-21-70.31-31.38-105.5-6.84-23.2-13.61-46.43-20.39-69.65l-16.96,19.51c2.15,7.2,4.29,14.4,6.41,21.61,14.36,48.74,28.53,97.54,42.88,146.28,11.22,38.09,22.56,76.15,33.95,114.19,.82,2.74,.42,4.61-1.45,6.75-16.28,18.71-32.48,37.49-48.64,56.3-5.88,6.85-11.73,13.71-17.58,20.58l13.16,17.48c8.71-9.92,17.44-19.84,26.08-29.82,17.09-19.75,34.05-39.61,51.22-59.29,2.05-2.35,2.22-4.16,1.37-7.03Z"/><path class="b" d="M1063.05,1015.97c-9.52,10.75-13.27,21.12-9.71,36.14,6.32,26.7-1.33,50.2-24.13,67.08-4.38,3.25-4.2,5.27-2.2,9.72,7.72,17.17,6.93,34.18-4.09,49.7-20.72,29.19-63.99,30.42-86.81,2.72-2.18-2.64-3.87-3.62-7.42-2.27-10.65,4.04-21.74,4.9-32.94,2.68-3.14-.62-4.35,.35-4.53,3.29-.32,5.52-1.79,10.79-3.19,16.11-10.33,39.36-52.51,62.01-91.07,48.85-32.49-11.09-50.73-43.12-48.31-78.51,.75-10.98,3.98-21.45,6.39-32.11-3.77-.63-7.25-.98-10.61-1.85-3.54-.91-6.91-2.39-10.02-4.4-14.89-9.62-21.03-28.79-14.35-47.32,1.95-5.42,.84-7.86-3.49-11.26-12.62-9.91-19.94-23.35-23.44-38.94-5.82-25.9-1.61-51.02,6.77-75.51,6.93-20.25,14.48-40.29,21.1-60.67,3.17-9.77,5.76-19.41,2.25-29.68-.95-2.79-1.14-5.85-1.67-8.79-4.6-25.34-9.18-50.68-13.82-76.01-4.25-23.19-8.7-46.34-12.79-69.56-2.01-11.44-5.12-22.7-5.72-34.37,.92-.7,1.9-1.35,2.76-2.12,31.85-28.3,63.7-56.59,95.53-84.91,14.17-12.61,28.32-25.22,42.48-37.84v-29.19c-8.8,7.83-17.6,15.66-26.39,23.49-21.14,18.81-42.25,37.65-63.4,56.45-21.95,19.52-43.94,39.01-65.89,58.53-.48,.43-.81,1.03-1.2,1.55,.49,0,.99,0,1.49,0-.49,.01-.99,0-1.49,0-7.04,3.62-7.97,8.94-6.3,16.48,3.63,16.37,6.16,32.98,9.21,49.49,4.28,23.22,8.68,46.42,12.93,69.64,4.73,25.81,9.42,51.63,14.01,77.46,.76,4.26-1.54,8.1-2.71,12.03-6.2,20.87-14.25,41.1-21.28,61.68-9.27,27.11-13.24,54.92-7.94,83.48,3.33,17.91,11.12,33.68,23.66,46.96,1.65,1.75,2.05,3.18,1.77,5.62-3.16,27.15,4.9,49.28,29.43,63.6,3.02,1.76,2.52,3.91,2.13,6.31-2.73,16.85-1.92,33.51,3.21,49.8,20.77,66.05,99.58,87.84,151.03,41.71,12.67-11.36,21.24-25.5,26.04-41.83,.96-3.28,2.5-4.37,6.01-5.16,7.91-1.77,13.71,.32,20.36,5.01,36.83,25.99,87.56,14.76,110.06-24.1,8.93-15.42,11.04-32.25,7.38-49.66-.81-3.86-.39-6.41,2.48-9.62,20.32-22.73,26.39-49.41,20.14-78.9-1.33-6.26-.63-10.54,3.77-15.56,26.29-29.97,52.21-60.26,78.22-90.49h-28.68c-21.59,25.08-43.06,50.27-64.99,75.05Z"/><path class="b" d="M914.01,940.92h-84v-324.32l-92,82.06,4.09,21.09c-.04,.51,0,1.12,.15,1.84,2.93,14.97,5.22,30.07,8.82,44.91,1.21,7.35,2.29,14.73,3.65,22.06,2.25,12.11,4.7,24.18,7.02,36.28,1.96,10.2,4.18,20.39,6,30.58,2.51,13.99,4.72,28.06,7.43,42.01,3.55,18.24,6.09,36.68,10.64,54.72,.24,.94,.72,2.12-.56,2.47-1.5,.4-1.84-1.06-2.36-2.07-5.59-10.95-11.17-21.9-16.77-32.85-.67-1.31-1.38-2.61-2.51-4.73-2.66,7.99-5.21,15.2-7.45,22.51-4.9,16.04-12.69,31.11-16.49,47.5-3.31,14.26-6.13,28.66-1.63,43.28,3.03,9.85,9.56,15.3,19.75,16.38,5.57,.59,10.94-.52,16.32-1.72,12.7-2.83,20.2,1.28,25.1,13.51,5.64,14.04,6.84,28.82,6.38,43.63-.67,21.81-4.14,43.21-10.13,64.32-3.04,10.71-3.33,22.06,3.22,32.35,5.48,8.6,13.28,12.46,23.23,11.58,10.38-.92,17.6-6.53,21.48-16.22,5.52-13.79,2.6-27.29-.83-41.05-7.08-28.39-7.91-56.9,.81-85.21,1.53-4.97,3.8-9.59,8.14-12.85,15.14-11.39,32.09-4.79,35.7,14.1,1.93,10.08,.8,20.21-.69,30.29-1.26,8.54-2.84,17.13,.41,25.61,3.84,10.02,13.21,15.87,23.04,14.39,10.31-1.55,17.33-9.76,18.16-20.77,.62-8.24-3.01-15.6-4.3-23.42-4.46-27.12,.42-51.62,21.16-71.25,4.58-4.33,10.4-5.86,16.69-4.79,6.2,1.06,10.59,4.22,12.69,10.52,1.84,5.53,1.98,11.1,1.61,16.77-.35,5.49-.57,10.9,.81,16.36,2.11,8.34,8.3,13.25,17.06,12.95,7.9-.27,14.09-5.73,15.06-14.01,.52-4.42,.9-9.2-.2-13.42-4.15-15.86,.45-29.83,7.98-43.43,5.55-10.02,13.67-17.98,20.99-26.58,10.75-12.63,21.64-25.16,32.47-37.72l-156.15-219.67v222Z"/><polygon class="b" points="914.01 541.68 914.01 718.92 1085.88 517.42 1055.96 415.06 914.01 541.68"/><path class="b" d="M1127.73,871.7c2.97-3.45,5.93-6.89,8.9-10.34,.21-.25,.34-.57,.51-.85,5.77-6.59,11.5-13.23,17.3-19.8l19.54-21.8-9.37-32.06s.02,0,.03,0c-1.39-4.72-2.78-9.43-4.17-14.15l-55.29-189.21-104.17,119.82,126.71,168.38Z"/><path class="b" d="M985.01,1126.12c-1.57-3.2-1.97-6.65-1.88-10.18,.17-5.6,.09-5.63-5.01-3.3-15.59,7.13-21.62,26.91-19.19,37.22,1.78,7.58,6.66,12.09,14.11,13.69,6.35,1.36,11.94-.45,16.09-5.49,4.89-5.95,5.49-12.6,2.12-19.54-2.02-4.17-4.2-8.26-6.25-12.42Z"/><path class="b" d="M767,1066.57c-11.22,5.61-18.34,13.49-19.26,25.81-.41,5.47,1.46,10.19,6.48,13.09,4.19,2.41,9.83,1.87,13.6-1.11,4.56-3.6,5.5-10.64,2.32-17.27-4.03-8.37-4.53-11.39-3.15-20.52Z"/><path class="b" d="M1164.82,514.92h-10.24c.86,2.94,1.72,5.88,2.57,8.81l7.66-8.81Z"/><path class="b" d="M830.01,514.92v12.05c4.51-4.02,9.03-8.03,13.54-12.05h-13.54Z"/><path class="b" d="M1161.75,935.08c-1.68,1.95-3.35,3.9-5.03,5.85h23.1l-10.89-14.48c-1.93,2.2-3.86,4.4-5.79,6.6-.46,.68-.85,1.42-1.39,2.04Z"/><path class="b" d="M914.01,541.68v-26.76h-37.69c-15.44,13.75-30.88,27.49-46.31,41.24v60.44l84-74.93Z"/><path class="b" d="M1088.01,514.92l-2.14,2.51,19.31,66.08,35-40.26c-2.82-9.44-5.64-18.88-8.47-28.32h-43.7Z"/><path class="b" d="M1072.53,935.84c-.79,.92-1.58,1.83-2.37,2.75l1.65,2.33h56.22c2.3-2.67,4.59-5.34,6.89-8.01,.64-.74,1.44-1.34,2.16-2.01,6.23-7.31,12.45-14.63,18.68-21.95l-28.04-37.26c-18.39,21.38-36.79,42.77-55.19,64.14Z"/></g><g><path class="b" d="M1264.2,740.92h52.4v52.8c1.2-40.4,28-58.4,69.2-58.4h15.2v32h-20.4c-18,0-24.8,13.2-24.8,29.6h-39.2v144h-52.4v-200Z"/><path class="b" d="M1508.59,944.92l-82.8-204h59.6l50.8,136.8,52.8-136.8h40.8l-114.8,284h-40l33.6-80Z"/><path class="b" d="M1756.19,914.52h7.6c34,0,52-24.8,52-73.6s-18-73.6-52-73.6h-7.6v-32h7.6c67.2,0,105.2,40.8,105.2,105.6s-38,105.6-105.2,105.6h-7.6v-32h-38.8v110.4h-52.4v-284h52.4v26.4h38.8v32h-38.8v83.2h38.8v32Z"/><path class="b" d="M2002.99,940.92c-50,0-77.2-16.4-77.2-59.2v-108.8h-36.8v-32h36.8v-57.2h52v57.2h46.8v32h-46.8v108.8c0,17.6,7.6,27.2,25.2,27.2h22v32h-22Z"/><path class="b" d="M2054.99,840.92c0-71.2,42.8-105.6,104-105.6s104,34.4,104,105.6-42.8,105.6-104,105.6-104-34.4-104-105.6Zm154.4,0c0-47.6-15.6-73.6-50.4-73.6s-50.4,26-50.4,73.6,15.6,73.6,50.4,73.6,50.4-26,50.4-73.6Z"/><path class="b" d="M2315.39,740.92h52.4v26.4h38.8v32h-38.8v141.6h-52.4v-200Zm138.4,98.4c0-39.2-1.6-72-47.2-72v-32c62.8,0,99.2,20.4,99.2,104v101.6h-52v-101.6Z"/><path class="b" d="M2566.18,679.73c0-16.4,12.8-29.2,29.2-29.2s29.2,12.8,29.2,29.2-12.8,29.2-29.2,29.2-29.2-12.4-29.2-29.2Zm2.8,61.2h52.4v200h-52.4v-200Z"/><path class="b" d="M2773.78,940.92c-50,0-77.2-16.4-77.2-59.2v-108.8h-36.8v-32h36.8v-57.2h52v57.2h46.8v32h-46.8v108.8c0,17.6,7.6,27.2,25.2,27.2h22v32h-22Z"/><path class="b" d="M2825.77,840.92c0-71.2,42.4-105.6,103.6-105.6,54.4,0,91.2,30,98.8,86h-53.6v32h-94.8c1.6,38.8,18,61.2,49.2,61.2,23.6,0,35.6-10.8,41.2-32.4h53.6c-13.6,44.4-50.8,64.4-94.4,64.4-61.2,0-103.6-34.4-103.6-105.6Zm54.8-19.6h94c-3.2-34.4-19.2-54-45.6-54-29.2,0-44.8,19.6-48.4,54Z"/></g></svg>