<?xml version="1.0" encoding="UTF-8"?><svg id="a" xmlns="http://www.w3.org/2000/svg" viewBox="0 0 279.31 469.72"><defs><style>.b{fill:#5B7DB1;}</style></defs><path class="b" d="M112.69,94.07c21.17-18.83,42.37-37.63,63.54-56.45,6.5-5.77,12.96-11.58,19.44-17.37,2.14-1.91,2.34-1.87,3.23,.99,.8,2.59,1.52,5.2,2.28,7.8,5.5,18.74,10.98,37.49,16.51,56.22,1.9,6.44,3.83,12.88,5.76,19.32h10.97c-1.87-6.42-3.75-12.83-5.64-19.25-3.67-12.46-7.42-24.89-11.11-37.35-4.59-15.51-9.18-31.02-13.67-46.55-.54-1.85-.99-1.74-2.23-.62-6.73,6.07-13.5,12.1-20.23,18.17-7.62,6.86-15.41,13.54-23.07,20.35-12.34,10.98-24.68,21.96-37.01,32.93-12.1,10.77-24.2,21.54-36.3,32.3h15.73c3.93-3.5,7.86-7.01,11.8-10.51Z"/><path class="b" d="M279.08,255.94c-6.22-21.01-12.35-42.06-18.56-63.08-4.99-16.89-10.08-33.74-15.06-50.63-3.28-11.14-6.53-22.28-9.79-33.43l-8.14,9.36c1.03,3.46,2.06,6.91,3.08,10.37,6.89,23.39,13.69,46.81,20.58,70.2,5.38,18.28,10.83,36.55,16.29,54.81,.39,1.32,.2,2.21-.69,3.24-7.81,8.98-15.59,17.99-23.34,27.02-2.82,3.29-5.63,6.58-8.44,9.88l6.32,8.39c4.18-4.76,8.37-9.52,12.52-14.31,8.2-9.48,16.34-19.01,24.58-28.46,.98-1.13,1.06-2,.66-3.37Z"/><path class="b" d="M190.51,345.05c-4.57,5.16-6.37,10.14-4.66,17.35,3.03,12.82-.64,24.09-11.58,32.2-2.1,1.56-2.02,2.53-1.06,4.67,3.7,8.24,3.32,16.41-1.96,23.86-9.94,14.01-30.71,14.6-41.66,1.31-1.04-1.27-1.86-1.74-3.56-1.09-5.11,1.94-10.43,2.35-15.81,1.29-1.51-.3-2.09,.17-2.17,1.58-.16,2.65-.86,5.18-1.53,7.73-4.96,18.89-25.2,29.76-43.71,23.44-15.59-5.32-24.35-20.7-23.19-37.68,.36-5.27,1.91-10.3,3.06-15.41-1.81-.3-3.48-.47-5.09-.89-1.7-.44-3.32-1.15-4.81-2.11-7.14-4.62-10.09-13.82-6.89-22.71,.94-2.6,.4-3.77-1.68-5.4-6.06-4.76-9.57-11.21-11.25-18.69-2.79-12.43-.77-24.49,3.25-36.24,3.33-9.72,6.95-19.34,10.13-29.12,1.52-4.69,2.76-9.32,1.08-14.24-.46-1.34-.55-2.81-.8-4.22-2.21-12.16-4.41-24.32-6.63-36.48-2.04-11.13-4.18-22.24-6.14-33.38-.97-5.49-2.46-10.89-2.75-16.5,.44-.34,.91-.65,1.33-1.02,15.29-13.58,30.57-27.16,45.85-40.75,6.8-6.05,13.59-12.11,20.39-18.16v-14.01c-4.22,3.76-8.44,7.51-12.67,11.27-10.14,9.03-20.28,18.07-30.43,27.09-10.54,9.37-21.09,18.72-31.62,28.09-.23,.2-.39,.49-.58,.74,.24,0,.48,0,.71,0-.24,0-.48,0-.71,0-3.38,1.74-3.83,4.29-3.02,7.91,1.74,7.86,2.96,15.83,4.42,23.75,2.06,11.14,4.16,22.28,6.21,33.42,2.27,12.39,4.52,24.78,6.72,37.18,.36,2.04-.74,3.89-1.3,5.77-2.97,10.01-6.84,19.73-10.21,29.6-4.45,13.01-6.36,26.36-3.81,40.06,1.6,8.6,5.33,16.17,11.36,22.54,.79,.84,.99,1.52,.85,2.7-1.52,13.03,2.35,23.65,14.13,30.52,1.45,.85,1.21,1.88,1.02,3.03-1.31,8.09-.92,16.08,1.54,23.9,9.97,31.7,47.79,42.16,72.49,20.02,6.08-5.45,10.19-12.24,12.5-20.08,.46-1.57,1.2-2.1,2.88-2.48,3.8-.85,6.58,.15,9.77,2.41,17.68,12.48,42.02,7.08,52.82-11.57,4.28-7.4,5.3-15.48,3.54-23.84-.39-1.85-.18-3.08,1.19-4.62,9.75-10.91,12.66-23.71,9.66-37.87-.64-3.01-.3-5.06,1.81-7.47,12.62-14.38,25.06-28.92,37.54-43.43h-13.77c-10.36,12.04-20.66,24.13-31.19,36.02Z"/><path class="b" d="M118.98,309.03h-40.32V153.38l-44.16,39.39,1.97,10.12c-.02,.25,0,.54,.07,.89,1.41,7.19,2.5,14.43,4.23,21.55,.58,3.53,1.1,7.07,1.75,10.59,1.08,5.81,2.25,11.61,3.37,17.41,.94,4.9,2.01,9.79,2.88,14.67,1.2,6.71,2.27,13.47,3.57,20.16,1.7,8.75,2.92,17.6,5.11,26.26,.11,.45,.34,1.02-.27,1.18-.72,.19-.89-.51-1.13-.99-2.68-5.25-5.36-10.51-8.05-15.77-.32-.63-.66-1.25-1.2-2.27-1.27,3.84-2.5,7.3-3.57,10.8-2.35,7.7-6.09,14.93-7.91,22.8-1.59,6.84-2.94,13.75-.78,20.77,1.45,4.73,4.59,7.34,9.48,7.86,2.67,.28,5.25-.25,7.83-.82,6.1-1.36,9.69,.61,12.05,6.48,2.7,6.74,3.28,13.83,3.06,20.94-.32,10.47-1.99,20.74-4.86,30.87-1.46,5.14-1.6,10.59,1.55,15.53,2.63,4.13,6.37,5.98,11.15,5.56,4.98-.44,8.45-3.14,10.31-7.78,2.65-6.62,1.25-13.1-.4-19.7-3.4-13.63-3.8-27.31,.39-40.9,.73-2.38,1.83-4.6,3.91-6.17,7.27-5.47,15.4-2.3,17.13,6.77,.92,4.84,.38,9.7-.33,14.54-.61,4.1-1.36,8.22,.2,12.29,1.84,4.81,6.34,7.62,11.06,6.91,4.95-.74,8.32-4.68,8.72-9.97,.3-3.95-1.45-7.48-2.06-11.24-2.14-13.02,.2-24.78,10.16-34.19,2.2-2.08,4.99-2.81,8.01-2.3,2.98,.51,5.08,2.03,6.09,5.05,.88,2.65,.95,5.33,.77,8.05-.17,2.63-.27,5.23,.39,7.85,1.01,4,3.98,6.36,8.19,6.21,3.79-.13,6.76-2.75,7.23-6.72,.25-2.12,.43-4.42-.1-6.44-1.99-7.61,.22-14.32,3.83-20.84,2.66-4.81,6.56-8.63,10.07-12.76,5.16-6.06,10.38-12.07,15.58-18.11l-74.94-105.43v106.55Z"/><polygon class="b" points="118.98 117.41 118.98 202.48 201.47 105.77 187.11 56.64 118.98 117.41"/><path class="b" d="M221.55,275.81c1.42-1.65,2.85-3.31,4.27-4.96,.1-.12,.16-.27,.25-.41,2.77-3.16,5.52-6.35,8.3-9.5l9.38-10.46-4.5-15.39s.01,0,.02,0c-.67-2.27-1.33-4.53-2-6.79l-26.54-90.81-50,57.51,60.81,80.81Z"/><path class="b" d="M153.06,397.92c-.76-1.54-.94-3.19-.9-4.88,.08-2.69,.04-2.7-2.4-1.58-7.48,3.42-10.37,12.91-9.21,17.87,.86,3.64,3.19,5.8,6.77,6.57,3.05,.65,5.73-.22,7.72-2.63,2.35-2.86,2.63-6.05,1.02-9.38-.97-2-2.02-3.96-3-5.96Z"/><path class="b" d="M48.43,369.33c-5.38,2.69-8.8,6.47-9.24,12.39-.2,2.62,.7,4.89,3.11,6.28,2.01,1.16,4.72,.9,6.53-.53,2.19-1.73,2.64-5.11,1.11-8.29-1.93-4.02-2.17-5.47-1.51-9.85Z"/><path class="b" d="M239.35,104.57h-4.91c.41,1.41,.82,2.82,1.24,4.23l3.68-4.23Z"/><path class="b" d="M78.67,104.57v5.78c2.17-1.93,4.33-3.86,6.5-5.78h-6.5Z"/><path class="b" d="M237.88,306.22c-.8,.93-1.61,1.87-2.41,2.81h11.09l-5.23-6.95c-.93,1.06-1.85,2.11-2.78,3.17-.22,.33-.41,.68-.66,.98Z"/><path class="b" d="M118.98,117.41v-12.84h-18.09c-7.41,6.6-14.82,13.19-22.23,19.79v29.01l40.32-35.96Z"/><path class="b" d="M202.49,104.57l-1.03,1.2,9.27,31.71,16.8-19.32c-1.35-4.53-2.71-9.06-4.07-13.59h-20.98Z"/><path class="b" d="M195.06,306.59c-.38,.44-.76,.88-1.14,1.32l.79,1.12h26.98c1.1-1.28,2.2-2.56,3.31-3.84,.31-.35,.69-.64,1.04-.96,2.99-3.51,5.98-7.02,8.96-10.53l-13.46-17.88c-8.83,10.26-17.66,20.53-26.49,30.78Z"/></svg>